<svg t="1694000522584" class="icon" viewBox="0 0 1024 1024" version="1.1" xmlns="http://www.w3.org/2000/svg" p-id="14072" width="32" height="32"><path d="M511.550439 999.02439C235.869659 998.774634 12.487805 775.242927 12.487805 499.512195 12.487805 223.63161 236.119415 0 512 0s499.512195 223.63161 499.512195 499.512195c0 123.654244-44.956098 236.818732-119.383415 324.058537l55.046244 181.148097-435.949268-5.095024 0.324683-0.599415z m251.004878-307.125073c-23.701854 9.116098-49.201951-23.676878-76.500293-98.328976L530.332098 224.780488h-19.106342l-155.722927 385.173853c-18.20722 56.444878-40.96 83.768195-68.283317 81.944976v16.384h142.061268v-16.384h-5.494634c-34.59122-3.646439-51.874341-13.661659-51.874341-30.045658-1.82322-9.116098 9.091122-39.161756 32.768-90.161952h155.722927c20.030439 45.555512 30.969756 76.500293 32.768 92.909269 3.646439 16.384-12.737561 25.475122-49.176976 27.298341h-8.192v16.384h226.728585v-16.384z m-349.658537-147.505951l65.536-172.081951 71.030635 172.081951h-136.59161z" fill="#ff3e00" p-id="14073" data-spm-anchor-id="a313x.search_index.0.i1.77b53a81SiKXWJ" class="selected"></path></svg>